<mxfile host="app.diagrams.net" modified="2024-07-18T09:39:06.037Z" agent="Mozilla/5.0 (Macintosh; Intel Mac OS X 10.15; rv:128.0) Gecko/20100101 Firefox/128.0" version="24.4.13" etag="AYC8eZa06VxCs6gjK2-Z" type="github">
  <diagram name="Page-1" id="ZKi-3pqp_AFc0eDNDxiw">
    <mxGraphModel>
      <root>
        <mxCell id="0" />
        <mxCell id="1" parent="0" />
      </root>
    </mxGraphModel>
  </diagram>
</mxfile>
